<svg xmlns="http://www.w3.org/2000/svg" width="3840" height="2160" viewBox="0 0 3840 2160" fill="none">
  <defs>
    <linearGradient id="g" x1="0" y1="0" x2="3840" y2="2160" gradientUnits="userSpaceOnUse">
      <stop stop-color="#0B0B0E"/>
      <stop offset="0.55" stop-color="#2A1B2A"/>
      <stop offset="1" stop-color="#C8102E"/>
    </linearGradient>
  </defs>
  <rect width="3840" height="2160" fill="url(#g)"/>
  <g opacity="0.9">
    <path d="M700 1440c140-210 380-340 700-340h560c230 0 430 125 610 310l310 300h300c60 0 110 50 110 110 0 60-50 110-110 110H650c-110 0-175-110-100-195l150-295Z" fill="#0B0B0E" stroke="#FFFFFF" stroke-opacity="0.22" stroke-width="10"/>
    <circle cx="1280" cy="1650" r="250" fill="#0B0B0E" stroke="#FFFFFF" stroke-opacity="0.35" stroke-width="24"/>
    <circle cx="2880" cy="1650" r="250" fill="#0B0B0E" stroke="#FFFFFF" stroke-opacity="0.35" stroke-width="24"/>
    <path d="M1740 1060h620l380 310h-820l-180-310Z" fill="#2A1B2A" stroke="#FFFFFF" stroke-opacity="0.18" stroke-width="10"/>
    <path d="M2120 1250h340" stroke="#C8102E" stroke-width="14" stroke-linecap="round"/>
  </g>
  <text x="220" y="320" font-family="Segoe UI, Arial, sans-serif" font-size="90" font-weight="900" fill="#FFFFFF" opacity="0.85">MODEL IMAGE PLACEHOLDER (4K)</text>
</svg>
