<svg xmlns="http://www.w3.org/2000/svg" width="3840" height="2160" viewBox="0 0 3840 2160" fill="none">
  <defs>
    <linearGradient id="g" x1="0" y1="0" x2="3840" y2="2160" gradientUnits="userSpaceOnUse">
      <stop stop-color="#0B0B0E"/>
      <stop offset="0.55" stop-color="#1B1B2A"/>
      <stop offset="1" stop-color="#C8102E"/>
    </linearGradient>
  </defs>
  <rect width="3840" height="2160" fill="url(#g)"/>
  <g opacity="0.9">
    <path d="M780 1380c120-170 320-270 590-270h490c200 0 370 105 540 250l280 250h260c60 0 110 50 110 110 0 60-50 110-110 110H720c-100 0-160-100-95-180l155-270Z" fill="#0B0B0E" stroke="#FFFFFF" stroke-opacity="0.22" stroke-width="10"/>
    <circle cx="1260" cy="1610" r="235" fill="#0B0B0E" stroke="#FFFFFF" stroke-opacity="0.35" stroke-width="24"/>
    <circle cx="2760" cy="1610" r="235" fill="#0B0B0E" stroke="#FFFFFF" stroke-opacity="0.35" stroke-width="24"/>
    <path d="M1640 1100h540l320 270h-710l-150-270Z" fill="#1B1B2A" stroke="#FFFFFF" stroke-opacity="0.18" stroke-width="10"/>
    <path d="M1970 1270h310" stroke="#C8102E" stroke-width="14" stroke-linecap="round"/>
  </g>
  <text x="220" y="320" font-family="Segoe UI, Arial, sans-serif" font-size="90" font-weight="900" fill="#FFFFFF" opacity="0.85">MODEL IMAGE PLACEHOLDER (4K)</text>
</svg>
