<svg xmlns="http://www.w3.org/2000/svg" width="3840" height="2160" viewBox="0 0 3840 2160" fill="none">
  <defs>
    <linearGradient id="g" x1="0" y1="0" x2="3840" y2="2160" gradientUnits="userSpaceOnUse">
      <stop stop-color="#0B0B0E"/>
      <stop offset="0.55" stop-color="#2A1B1B"/>
      <stop offset="1" stop-color="#C8102E"/>
    </linearGradient>
  </defs>
  <rect width="3840" height="2160" fill="url(#g)"/>
  <g opacity="0.9">
    <path d="M820 1400c110-160 300-260 560-260h470c190 0 360 100 520 240l270 240h250c60 0 110 50 110 110 0 60-50 110-110 110H740c-95 0-155-95-95-175l175-265Z" fill="#0B0B0E" stroke="#FFFFFF" stroke-opacity="0.22" stroke-width="10"/>
    <circle cx="1300" cy="1620" r="235" fill="#0B0B0E" stroke="#FFFFFF" stroke-opacity="0.35" stroke-width="24"/>
    <circle cx="2700" cy="1620" r="235" fill="#0B0B0E" stroke="#FFFFFF" stroke-opacity="0.35" stroke-width="24"/>
    <path d="M1600 1120h520l300 260h-690l-130-260Z" fill="#2A1B1B" stroke="#FFFFFF" stroke-opacity="0.18" stroke-width="10"/>
    <path d="M1910 1290h300" stroke="#C8102E" stroke-width="14" stroke-linecap="round"/>
  </g>
  <text x="220" y="320" font-family="Segoe UI, Arial, sans-serif" font-size="90" font-weight="900" fill="#FFFFFF" opacity="0.85">MODEL IMAGE PLACEHOLDER (4K)</text>
</svg>
