<svg xmlns="http://www.w3.org/2000/svg" width="3840" height="2160" viewBox="0 0 3840 2160" fill="none">
  <defs>
    <linearGradient id="g" x1="0" y1="0" x2="3840" y2="2160" gradientUnits="userSpaceOnUse">
      <stop stop-color="#0B0B0E"/>
      <stop offset="0.55" stop-color="#1B2A1B"/>
      <stop offset="1" stop-color="#C8102E"/>
    </linearGradient>
  </defs>
  <rect width="3840" height="2160" fill="url(#g)"/>
  <g opacity="0.9">
    <path d="M720 1420c130-190 350-310 640-310h520c210 0 380 110 540 270l280 260h280c60 0 110 50 110 110 0 60-50 110-110 110H680c-100 0-160-100-95-180l135-260Z" fill="#0B0B0E" stroke="#FFFFFF" stroke-opacity="0.22" stroke-width="10"/>
    <circle cx="1240" cy="1630" r="240" fill="#0B0B0E" stroke="#FFFFFF" stroke-opacity="0.35" stroke-width="24"/>
    <circle cx="2780" cy="1630" r="240" fill="#0B0B0E" stroke="#FFFFFF" stroke-opacity="0.35" stroke-width="24"/>
    <path d="M1680 1080h560l340 280h-740l-160-280Z" fill="#1B2A1B" stroke="#FFFFFF" stroke-opacity="0.18" stroke-width="10"/>
    <path d="M2010 1260h320" stroke="#C8102E" stroke-width="14" stroke-linecap="round"/>
  </g>
  <text x="220" y="320" font-family="Segoe UI, Arial, sans-serif" font-size="90" font-weight="900" fill="#FFFFFF" opacity="0.85">MODEL IMAGE PLACEHOLDER (4K)</text>
</svg>
